# xmcd
#
# Track frame offsets: 
#        150
#        17933
#        47353
#        71612
#        92791
#        121984
#        146446
#        165167
#        194166
#
# Disc length: 2725 seconds
#
# Revision: 0
# Processed by: cddbd v1.5.2PL0 Copyright (c) Steve Scherf et al.
# Submitted via: ExactAudioCopy v1.0b4
#
DISCID=760aa309
DTITLE=Blinddog Smokin' - Up From The Tracks
DYEAR=2011
DGENRE=Blues, Blues Rock
TTITLE0=Money
TTITLE1=Angels At The Crossroads
TTITLE2=Bobby Rush's Bus
TTITLE3=Lace and Leather
TTITLE4=Just Come Home To Die
TTITLE5=Miss Peggy's
TTITLE6=Funky Old Man
TTITLE7=Church Of Fools
TTITLE8=Cognac And Chocolate
EXTD=
EXTT0=
EXTT1=
EXTT2=
EXTT3=
EXTT4=
EXTT5=
EXTT6=
EXTT7=
EXTT8=
PLAYORDER=
